<svg width="156" height="42" version="1.1" xmlns="http://www.w3.org/2000/svg" desc="Created with imagetracer.js version 1.2.6" ><path fill="rgb(7,49,97)" stroke="rgb(7,49,97)" stroke-width="1" opacity="0.5568627450980392" d="M 73.5 6 L 77 6.5 L 73.5 7 L 73.5 6 Z " /><path fill="rgb(7,49,97)" stroke="rgb(7,49,97)" stroke-width="1" opacity="0.5568627450980392" d="M 93.5 6 L 96 6.5 L 93.5 7 L 93.5 6 Z " /><path fill="rgb(7,49,97)" stroke="rgb(7,49,97)" stroke-width="1" opacity="0.5568627450980392" d="M 101.5 6 L 105 6.5 L 100.5 8 L 101.5 6 Z " /><path fill="rgb(7,49,97)" stroke="rgb(7,49,97)" stroke-width="1" opacity="0.5568627450980392" d="M 97.5 7 L 98 9.5 L 95.5 11 L 95.5 10 Q 98.4 10.7 97.5 7 Z " /><path fill="rgb(7,49,97)" stroke="rgb(7,49,97)" stroke-width="1" opacity="0.5568627450980392" d="M 106.5 8 L 107 11.5 L 106 11.5 L 106.5 8 Z " /><path fill="rgb(7,49,97)" stroke="rgb(7,49,97)" stroke-width="1" opacity="0.5568627450980392" d="M 54 15 L 56 15.5 L 55 16.5 L 54.5 37 L 54 15 Z " /><path fill="rgb(7,49,97)" stroke="rgb(7,49,97)" stroke-width="1" opacity="0.5568627450980392" d="M 67.5 15 L 68 19.5 L 67 19.5 L 67.5 15 Z " /><path fill="rgb(7,49,97)" stroke="rgb(7,49,97)" stroke-width="1" opacity="0.5568627450980392" d="M 72.5 15 L 75 15.5 L 72.5 16 L 72.5 15 Z " /><path fill="rgb(7,49,97)" stroke="rgb(7,49,97)" stroke-width="1" opacity="0.5568627450980392" d="M 82.5 15 L 83 19.5 L 82 19.5 L 82.5 15 Z " /><path fill="rgb(7,49,97)" stroke="rgb(7,49,97)" stroke-width="1" opacity="0.5568627450980392" d="M 100 15 L 102 15.5 L 101 16.5 L 101 36 L 103 36.5 L 100 37 L 100 15 Z " /><path fill="rgb(7,49,97)" stroke="rgb(7,49,97)" stroke-width="1" opacity="0.5568627450980392" d="M 137.5 16 L 135.5 19 L 137.5 16 Z " /><path fill="rgb(7,49,97)" stroke="rgb(7,49,97)" stroke-width="1" opacity="0.5568627450980392" d="M 38.5 19 L 43 19.5 L 38.5 20 L 38.5 19 Z " /><path fill="rgb(7,49,97)" stroke="rgb(7,49,97)" stroke-width="1" opacity="0.5568627450980392" d="M 118.5 19 L 117.5 21 L 118.5 19 Z " /><path fill="rgb(7,49,97)" stroke="rgb(7,49,97)" stroke-width="1" opacity="0.5568627450980392" d="M 120.5 19 Q 124.3 18.3 125 20.5 L 123.5 20 Q 119.5 20.8 120.5 19 Z " /><path fill="rgb(7,49,97)" stroke="rgb(7,49,97)" stroke-width="1" opacity="0.5568627450980392" d="M 142.5 19 L 144 19.5 L 141.5 21 L 142.5 19 Z " /><path fill="rgb(7,49,97)" stroke="rgb(7,49,97)" stroke-width="1" opacity="0.5568627450980392" d="M 146.5 19 L 149 20.5 L 147.5 20 L 146.5 19 Z " /><path fill="rgb(7,49,97)" stroke="rgb(7,49,97)" stroke-width="1" opacity="0.5568627450980392" d="M 110.5 21 L 111 23.5 L 110 23.5 L 110.5 21 Z " /><path fill="rgb(7,49,97)" stroke="rgb(7,49,97)" stroke-width="1" opacity="0.5568627450980392" d="M 42.5 27 L 50 27.5 L 42.5 28 L 42.5 27 Z " /><path fill="rgb(7,49,97)" stroke="rgb(7,49,97)" stroke-width="1" opacity="0.5568627450980392" d="M 123.5 27 L 130 27.5 L 123.5 28 L 123.5 27 Z " /><path fill="rgb(7,49,97)" stroke="rgb(7,49,97)" stroke-width="1" opacity="0.5568627450980392" d="M 110.5 28 L 111 30.5 L 110 30.5 L 110.5 28 Z " /><path fill="rgb(7,49,97)" stroke="rgb(7,49,97)" stroke-width="1" opacity="0.5568627450980392" d="M 134.5 29 L 135 31.5 L 134 31.5 L 134.5 29 Z " /><path fill="rgb(7,49,97)" stroke="rgb(7,49,97)" stroke-width="1" opacity="0.5568627450980392" d="M 129.5 31 L 130 35.5 L 129 35.5 L 129.5 31 Z " /><path fill="rgb(7,49,97)" stroke="rgb(7,49,97)" stroke-width="1" opacity="0.5568627450980392" d="M 39.5 32 L 45 32.5 L 39.5 33 L 39.5 32 Z " /><path fill="rgb(7,49,97)" stroke="rgb(7,49,97)" stroke-width="1" opacity="0.5568627450980392" d="M 49.5 32 L 50 34.5 L 49 34.5 L 49.5 32 Z " /><path fill="rgb(7,49,97)" stroke="rgb(7,49,97)" stroke-width="1" opacity="0.5568627450980392" d="M 120.5 32 L 126 32.5 L 120.5 33 L 120.5 32 Z " /><path fill="rgb(7,49,97)" stroke="rgb(7,49,97)" stroke-width="1" opacity="0.5568627450980392" d="M 32.5 34 L 33.5 36 L 32.5 34 Z " /><path fill="rgb(2,47,97)" stroke="rgb(2,47,97)" stroke-width="1" opacity="0.10196078431372549" d="M 77.5 6 L 78.5 8 L 77.5 6 Z " /><path fill="rgb(2,47,97)" stroke="rgb(2,47,97)" stroke-width="1" opacity="0.10196078431372549" d="M 150.5 6 L 156 6.5 L 150 7 L 149.5 17 L 149 7.5 L 150.5 6 Z " /><path fill="rgb(2,47,97)" stroke="rgb(2,47,97)" stroke-width="1" opacity="0.10196078431372549" d="M 88.5 7 L 87.5 9 L 88.5 7 Z " /><path fill="rgb(2,47,97)" stroke="rgb(2,47,97)" stroke-width="1" opacity="0.10196078431372549" d="M 71.5 8 L 72 10.5 L 71 10.5 L 71.5 8 Z " /><path fill="rgb(2,47,97)" stroke="rgb(2,47,97)" stroke-width="1" opacity="0.10196078431372549" d="M 78.5 11 L 77.5 13 L 78.5 11 Z " /><path fill="rgb(2,47,97)" stroke="rgb(2,47,97)" stroke-width="1" opacity="0.10196078431372549" d="M 93.5 11 L 92.5 13 L 93.5 11 Z " /><path fill="rgb(2,47,97)" stroke="rgb(2,47,97)" stroke-width="1" opacity="0.10196078431372549" d="M 60.5 15 L 61.5 17 L 60.5 15 Z " /><path fill="rgb(2,47,97)" stroke="rgb(2,47,97)" stroke-width="1" opacity="0.10196078431372549" d="M 78.5 15 L 79 36.5 L 78 36.5 L 78.5 15 Z " /><path fill="rgb(2,47,97)" stroke="rgb(2,47,97)" stroke-width="1" opacity="0.10196078431372549" d="M 113.5 16 L 111.5 19 L 113.5 16 Z " /><path fill="rgb(2,47,97)" stroke="rgb(2,47,97)" stroke-width="1" opacity="0.10196078431372549" d="M 128.5 16 L 129.5 18 L 128.5 16 Z " /><path fill="rgb(2,47,97)" stroke="rgb(2,47,97)" stroke-width="1" opacity="0.10196078431372549" d="M 65.5 20 L 68 20.5 L 65.5 21 L 65.5 20 Z " /><path fill="rgb(2,47,97)" stroke="rgb(2,47,97)" stroke-width="1" opacity="0.10196078431372549" d="M 85.5 20 L 86 36.5 L 85 36.5 L 85.5 20 Z " /><path fill="rgb(2,47,97)" stroke="rgb(2,47,97)" stroke-width="1" opacity="0.10196078431372549" d="M 62.5 21 L 61.5 23 L 62.5 21 Z " /><path fill="rgb(2,47,97)" stroke="rgb(2,47,97)" stroke-width="1" opacity="0.10196078431372549" d="M 39.5 23 L 42 23.5 L 39.5 24 L 39.5 23 Z " /><path fill="rgb(2,47,97)" stroke="rgb(2,47,97)" stroke-width="1" opacity="0.10196078431372549" d="M 119.5 23 L 123 23.5 L 119.5 24 L 119.5 23 Z " /><path fill="rgb(2,47,97)" stroke="rgb(2,47,97)" stroke-width="1" opacity="0.10196078431372549" d="M 36 28 L 38 28.5 L 36 29.5 L 36 28 Z " /><path fill="rgb(2,47,97)" stroke="rgb(2,47,97)" stroke-width="1" opacity="0.10196078431372549" d="M 117.5 30 L 118.5 32 L 117.5 30 Z " /><path fill="rgb(2,47,97)" stroke="rgb(2,47,97)" stroke-width="1" opacity="0.10196078431372549" d="M 135.5 34 L 136.5 36 L 135.5 34 Z " /><path fill="rgb(0,0,0)" stroke="rgb(0,0,0)" stroke-width="1" opacity="0" d="M 0 0 L 155.5 0 L 156 0.5 L 156 6 Q 150.6 4.5 149 7.5 L 148.5 16 L 147.5 15 L 138.5 15 L 134 20.5 L 134 32.5 L 136.5 36 Q 140 38.5 147.5 37 L 150 35.5 L 150.5 37 L 156 37 L 156 42 L 0.5 42 L 0 41.5 L 0 0 Z M 30 2 L 25 7 L 18 27 L 13 17 L 10 13 L 1 14 L 10 37 L 12 38 L 24 38 L 37 5 L 37 2 L 30 2 Z M 72 6 L 71 9 L 72 12 Q 71 14 78 13 Q 80 12 79 8 Q 77 5 72 6 Z M 92 6 L 89 7 L 85 14 Q 86 16 82 15 L 82 20 L 85 21 L 85 37 L 92 37 L 92 21 L 97 20 L 97 15 L 92 15 L 92 14 Q 93 10 98 11 L 98 6 L 92 6 Z M 100 6 L 100 12 Q 101 14 106 13 Q 108 12 107 8 Q 105 5 100 6 Z M 35 15 L 30 28 L 30 33 L 35 37 L 48 37 L 49 36 L 50 36 L 50 31 Q 46 33 39 32 L 37 30 L 39 28 L 51 28 L 50 19 L 47 15 L 35 15 Z M 54 15 L 54 37 L 55 37 L 61 37 L 61 24 L 64 21 L 68 21 L 68 15 L 63 16 L 54 15 Z M 72 15 L 72 37 L 73 37 L 79 37 L 79 16 L 79 15 L 72 15 Z M 100 15 L 100 37 L 101 37 L 107 37 L 107 16 L 107 15 L 100 15 Z M 116 15 L 114 16 L 110 21 L 110 32 L 111 34 L 116 37 L 129 37 Q 131 36 130 31 L 127 32 Q 119 34 117 30 L 119 28 L 131 28 L 130 18 L 127 15 L 116 15 Z " /><path fill="rgb(0,0,0)" stroke="rgb(0,0,0)" stroke-width="1" opacity="0" d="M 38.5 20 Q 44.6 18.8 44 21.5 L 44.5 23 L 36 24 L 38.5 20 Z " /><path fill="rgb(0,0,0)" stroke="rgb(0,0,0)" stroke-width="1" opacity="0" d="M 118.5 20 Q 123.8 18.8 125 21.5 Q 125.6 24.3 119.5 23 L 117 24 L 118.5 20 Z " /><path fill="rgb(0,0,0)" stroke="rgb(0,0,0)" stroke-width="1" opacity="0" d="M 142 20 Q 147.4 18.5 149 21.5 L 150 28.5 L 147.5 32 Q 142.3 33.3 141 30.5 Q 140 23 142 20 Z " /><path fill="rgb(1,142,252)" stroke="rgb(1,142,252)" stroke-width="1" opacity="0.9803921568627451" d="M 29.5 3 L 36 3 L 36 5.5 L 33 10.5 L 33 13.5 L 26 31.5 L 22.5 37 L 11.5 37 L 11 35.5 L 2 13 Q 10.4 11.7 13 17.5 L 17.5 28 L 24 10.5 L 29.5 3 Z " /><path fill="rgb(19,134,224)" stroke="rgb(19,134,224)" stroke-width="1" opacity="0.30196078431372547" d="M 29.5 2 L 36.5 2 L 37 4.5 L 36 4.5 Q 36.5 1.5 29.5 3 L 25.5 8 L 25 6.5 L 29.5 2 Z " /><path fill="rgb(19,134,224)" stroke="rgb(19,134,224)" stroke-width="1" opacity="0.30196078431372547" d="M 34.5 8 L 35 9.5 L 33.5 12 L 33 10.5 L 34.5 8 Z " /><path fill="rgb(19,134,224)" stroke="rgb(19,134,224)" stroke-width="1" opacity="0.30196078431372547" d="M 8.5 13 L 13 16.5 L 9.5 14 L 8.5 13 Z " /><path fill="rgb(19,134,224)" stroke="rgb(19,134,224)" stroke-width="1" opacity="0.30196078431372547" d="M 16.5 26 L 17.5 28 L 16.5 26 Z " /><path fill="rgb(19,134,224)" stroke="rgb(19,134,224)" stroke-width="1" opacity="0.30196078431372547" d="M 24.5 34 L 25 35.5 L 24 38 L 11.5 38 L 10 36.5 L 10.5 35 L 11 37 L 22.5 37 L 24 35.5 L 24.5 34 Z " /><path fill="rgb(2,52,104)" stroke="rgb(2,52,104)" stroke-width="1" opacity="0.996078431372549" d="M 72 7 L 78 7 L 78 9.5 L 75.5 8 L 72 9 L 72 7 Z " /><path fill="rgb(2,52,104)" stroke="rgb(2,52,104)" stroke-width="1" opacity="0.996078431372549" d="M 93.5 7 L 97 8 Q 98.1 10.7 95.5 10 L 94 10.5 L 93.5 7 Z " /><path fill="rgb(2,52,104)" stroke="rgb(2,52,104)" stroke-width="1" opacity="0.996078431372549" d="M 101.5 7 L 106 8 L 105.5 12 L 103.5 8 L 101 9 L 100.5 11 L 100 8.5 L 101.5 7 Z " /><path fill="rgb(2,52,104)" stroke="rgb(2,52,104)" stroke-width="1" opacity="0.996078431372549" d="M 150.5 7 L 151.5 9 Q 148.7 9.7 150.5 7 Z " /><path fill="rgb(2,52,104)" stroke="rgb(2,52,104)" stroke-width="1" opacity="0.996078431372549" d="M 88 12 L 90 12.5 L 88 13.5 L 88 12 Z " /><path fill="rgb(2,52,104)" stroke="rgb(2,52,104)" stroke-width="1" opacity="0.996078431372549" d="M 43.5 15 L 46 21.5 L 45 21.5 Q 45.8 19.3 43.5 20 L 39 18.5 L 40 16 L 43.5 15 Z " /><path fill="rgb(2,52,104)" stroke="rgb(2,52,104)" stroke-width="1" opacity="0.996078431372549" d="M 66.5 15 L 67 20 L 62 17.5 Q 63.3 14.7 64.5 17 Q 67 17.7 66.5 15 Z " /><path fill="rgb(2,52,104)" stroke="rgb(2,52,104)" stroke-width="1" opacity="0.996078431372549" d="M 118 15 L 121 15.5 L 120 18 Q 116.7 19.1 118 15 Z " /><path fill="rgb(2,52,104)" stroke="rgb(2,52,104)" stroke-width="1" opacity="0.996078431372549" d="M 142.5 15 Q 147.6 14.4 149 17.5 L 150 20.5 L 147.5 19 Q 141.7 21.1 143 16.5 L 142.5 15 Z " /><path fill="rgb(2,52,104)" stroke="rgb(2,52,104)" stroke-width="1" opacity="0.996078431372549" d="M 36.5 16 L 37.5 18 L 36.5 16 Z " /><path fill="rgb(2,52,104)" stroke="rgb(2,52,104)" stroke-width="1" opacity="0.996078431372549" d="M 72.5 16 L 73 32 L 78 32 L 78 34 L 73 34 L 73 35.5 L 72 35.5 L 72.5 16 Z " /><path fill="rgb(2,52,104)" stroke="rgb(2,52,104)" stroke-width="1" opacity="0.996078431372549" d="M 104 16 Q 107.3 14.7 106 19.5 L 104 18.5 L 104 16 Z " /><path fill="rgb(2,52,104)" stroke="rgb(2,52,104)" stroke-width="1" opacity="0.996078431372549" d="M 138 16 Q 141.7 14.8 140 20 Q 134.8 18.3 136 22 Q 139.8 20.5 139 23.5 L 135 26.5 L 134.5 29 L 134 23.5 L 136.5 18 Q 139.1 18.7 138 16 Z " /><path fill="rgb(2,52,104)" stroke="rgb(2,52,104)" stroke-width="1" opacity="0.996078431372549" d="M 83.5 17 L 86 18 Q 87.1 21.3 83 20 L 83.5 17 Z " /><path fill="rgb(2,52,104)" stroke="rgb(2,52,104)" stroke-width="1" opacity="0.996078431372549" d="M 124 18 Q 127 17 126 20 Q 123 21 124 18 Z " /><path fill="rgb(2,52,104)" stroke="rgb(2,52,104)" stroke-width="1" opacity="0.996078431372549" d="M 34.5 19 L 36 24 L 38 24.5 L 36.5 25 L 34.5 19 Z " /><path fill="rgb(2,52,104)" stroke="rgb(2,52,104)" stroke-width="1" opacity="0.996078431372549" d="M 92.5 19 L 96 19.5 L 92 20 L 92 36 L 86 36 Q 84.5 32.2 87.5 33 L 91 34 L 91 20.5 L 92.5 19 Z " /><path fill="rgb(2,52,104)" stroke="rgb(2,52,104)" stroke-width="1" opacity="0.996078431372549" d="M 105.5 21 L 106 34 Q 103 33 104 36 L 101 36 L 103 30.5 L 103 24 L 101 23.5 L 102.5 23 Q 103.8 25.3 105 22.5 L 105.5 21 Z " /><path fill="rgb(2,52,104)" stroke="rgb(2,52,104)" stroke-width="1" opacity="0.996078431372549" d="M 129.5 21 L 131 24.5 L 129.5 24 Q 127.3 23.3 128 25.5 L 128.5 27 Q 124.8 28.3 126 24.5 L 125.5 23 L 128 24 L 129.5 21 Z " /><path fill="rgb(2,52,104)" stroke="rgb(2,52,104)" stroke-width="1" opacity="0.996078431372549" d="M 56 22 Q 58.7 20.9 58 23.5 L 56 24.5 L 56 22 Z " /><path fill="rgb(2,52,104)" stroke="rgb(2,52,104)" stroke-width="1" opacity="0.996078431372549" d="M 111 22 L 114 23.5 Q 115.1 26.8 112.5 26 L 111 25.5 L 110.5 28 L 110 24.5 L 111 22 Z " /><path fill="rgb(2,52,104)" stroke="rgb(2,52,104)" stroke-width="1" opacity="0.996078431372549" d="M 150.5 23 L 153 24 L 151 27.5 L 151.5 29 Q 149.3 29.8 150 27.5 L 150 25.5 L 150.5 23 Z " /><path fill="rgb(2,52,104)" stroke="rgb(2,52,104)" stroke-width="1" opacity="0.996078431372549" d="M 40 24 Q 43 23 42 26 L 40 26.5 L 42 27.5 L 37.5 28 L 38.5 26 Q 41.1 26.7 40 24 Z " /><path fill="rgb(2,52,104)" stroke="rgb(2,52,104)" stroke-width="1" opacity="0.996078431372549" d="M 117 24 L 123 24.5 L 120 26.5 L 123 27.5 L 116.5 28 L 117 26.5 L 117 24 Z " /><path fill="rgb(2,52,104)" stroke="rgb(2,52,104)" stroke-width="1" opacity="0.996078431372549" d="M 48 25 Q 51 24 50 27 Q 47 28 48 25 Z " /><path fill="rgb(2,52,104)" stroke="rgb(2,52,104)" stroke-width="1" opacity="0.996078431372549" d="M 33.5 27 L 34 34 Q 38.1 32.7 37 36 Q 32.3 36.8 31 32.5 L 30 29.5 L 31 29.5 L 31.5 31 L 33.5 27 Z " /><path fill="rgb(2,52,104)" stroke="rgb(2,52,104)" stroke-width="1" opacity="0.996078431372549" d="M 138.5 27 L 139 30.5 L 138 33.5 L 139.5 36 L 136 35 L 138.5 27 Z " /><path fill="rgb(2,52,104)" stroke="rgb(2,52,104)" stroke-width="1" opacity="0.996078431372549" d="M 112 30 Q 115.3 28.7 114 33.5 L 115.5 36 L 112 33.5 L 112 31.5 L 112 30 Z " /><path fill="rgb(2,52,104)" stroke="rgb(2,52,104)" stroke-width="1" opacity="0.996078431372549" d="M 57.5 31 Q 60.8 29.9 60 32.5 L 56.5 35 L 56 32.5 L 57.5 31 Z " /><path fill="rgb(2,52,104)" stroke="rgb(2,52,104)" stroke-width="1" opacity="0.996078431372549" d="M 38.5 32 L 41 33.5 L 39.5 34 L 38.5 32 Z " /><path fill="rgb(2,52,104)" stroke="rgb(2,52,104)" stroke-width="1" opacity="0.996078431372549" d="M 48.5 32 L 49 36 L 47 35.5 L 48.5 32 Z " /><path fill="rgb(2,52,104)" stroke="rgb(2,52,104)" stroke-width="1" opacity="0.996078431372549" d="M 126.5 32 L 127 34 L 121 33.5 L 126.5 32 Z " /><path fill="rgb(2,52,104)" stroke="rgb(2,52,104)" stroke-width="1" opacity="0.996078431372549" d="M 142.5 32 L 145 33.5 L 143.5 34 L 142.5 32 Z " /><path fill="rgb(2,52,104)" stroke="rgb(2,52,104)" stroke-width="1" opacity="0.996078431372549" d="M 153 32 Q 156 31 155 34 Q 152 35 153 32 Z " /><path fill="rgb(2,52,104)" stroke="rgb(2,52,104)" stroke-width="1" opacity="0.996078431372549" d="M 118 35 L 124 36.5 L 118 37 L 118 35 Z " /><path fill="rgb(2,52,104)" stroke="rgb(2,52,104)" stroke-width="1" opacity="0.996078431372549" d="M 144 35 Q 147 34 146 37 Q 143 38 144 35 Z " /><path fill="rgb(1,51,110)" stroke="rgb(1,51,110)" stroke-width="1" opacity="0.996078431372549" d="M 90.5 7 L 94 8.5 Q 95 12.3 92 11 Q 93 8 90 9 L 90 12 L 88 12 Q 89.1 14.7 86.5 14 L 87 12.5 L 90.5 7 Z " /><path fill="rgb(1,51,110)" stroke="rgb(1,51,110)" stroke-width="1" opacity="0.996078431372549" d="M 104.5 7 L 106 7.5 L 104 8.5 L 105 11.5 L 102.5 12 Q 99.5 12.7 101 9 L 104.5 7 Z " /><path fill="rgb(1,51,110)" stroke="rgb(1,51,110)" stroke-width="1" opacity="0.996078431372549" d="M 151.5 7 L 155 7.5 L 155 32 Q 152 31 153 34 Q 156 33 155 36 L 149.5 34 L 147 35.5 L 150 29 L 152 28.5 Q 149.5 27 153 25.5 Q 153.8 23.3 151.5 24 L 149 18.5 L 150 16 L 152 15.5 L 150 14.5 L 150.5 12 Q 153.1 12.7 152 10 L 150 9.5 L 152 8.5 L 151.5 7 Z " /><path fill="rgb(1,51,110)" stroke="rgb(1,51,110)" stroke-width="1" opacity="0.996078431372549" d="M 74.5 8 L 77 9.5 L 73 10 L 72.5 12 L 72 9 L 74.5 8 Z " /><path fill="rgb(1,51,110)" stroke="rgb(1,51,110)" stroke-width="1" opacity="0.996078431372549" d="M 89.5 13 L 90.5 15 L 92 14.5 L 92 16 L 96 16 L 96 19 Q 92.2 18 91 20.5 L 91 31.5 L 88.5 32 L 88.5 34 L 86 33 Q 85.3 29.9 88 30.5 L 88 19.5 L 86 19.5 Q 86.8 17.3 84.5 18 L 83.5 16 Q 90.5 18.3 89.5 13 Z " /><path fill="rgb(1,51,110)" stroke="rgb(1,51,110)" stroke-width="1" opacity="0.996078431372549" d="M 40.5 15 L 43 15.5 L 40 16 L 36.5 21 L 34.5 22 L 35.5 20 Q 37.8 20.8 37 18.5 L 35.5 16 L 38.5 17 L 40.5 15 Z " /><path fill="rgb(1,51,110)" stroke="rgb(1,51,110)" stroke-width="1" opacity="0.996078431372549" d="M 65.5 15 L 66 17 L 64 16.5 L 65.5 15 Z " /><path fill="rgb(1,51,110)" stroke="rgb(1,51,110)" stroke-width="1" opacity="0.996078431372549" d="M 121.5 15 L 124 16.5 L 122.5 16 L 121.5 15 Z " /><path fill="rgb(1,51,110)" stroke="rgb(1,51,110)" stroke-width="1" opacity="0.996078431372549" d="M 45 16 L 49 18.5 L 50 21.5 L 48 22.5 L 49.5 25 Q 47.3 24.3 48 26.5 L 46 25.5 L 45 22.5 L 48 21.5 L 47.5 19 Q 46.3 21.3 45 18.5 L 45 16 Z " /><path fill="rgb(1,51,110)" stroke="rgb(1,51,110)" stroke-width="1" opacity="0.996078431372549" d="M 55.5 16 Q 61.4 13.9 60 18.5 L 63 20.5 L 61 21 L 60.5 23 L 60 21 L 56 22 L 56.5 25 L 60 24 L 60 31 L 57.5 31 L 56 34.5 L 58 34.5 Q 58.7 37.5 55 36 L 56 30.5 L 55 28.5 L 56 26.5 L 55 22.5 L 56 20.5 L 55 18.5 L 55.5 16 Z " /><path fill="rgb(1,51,110)" stroke="rgb(1,51,110)" stroke-width="1" opacity="0.996078431372549" d="M 73 16 L 78 16.5 L 78 32 L 73 31.5 L 73 16 Z " /><path fill="rgb(1,51,110)" stroke="rgb(1,51,110)" stroke-width="1" opacity="0.996078431372549" d="M 117.5 16 L 118 18 L 122 18.5 L 117 19 L 116.5 21 L 116 19.5 L 117.5 16 Z " /><path fill="rgb(1,51,110)" stroke="rgb(1,51,110)" stroke-width="1" opacity="0.996078431372549" d="M 125 16 L 129 17.5 L 127 18 L 127.5 21 L 129.5 20 L 128 22.5 Q 127.3 24.8 129.5 24 L 131 27 L 128 25.5 Q 128.8 23.3 126.5 24 L 125 24.5 L 126 22.5 L 125 20.5 L 126 18.5 L 125 16 Z " /><path fill="rgb(1,51,110)" stroke="rgb(1,51,110)" stroke-width="1" opacity="0.996078431372549" d="M 142.5 16 L 143 18.5 Q 137.8 20.8 140 30.5 L 144.5 34 L 146 33.5 Q 146.8 36.1 143.5 35 L 139 32 L 139 34 Q 141.7 32.9 141 35.5 L 138 33.5 L 137.5 31 L 135 32.5 L 136 28.5 L 135 26.5 L 139 23.5 Q 139.7 20.5 136 22 L 136 20 Q 140.6 21.3 142 18.5 L 142.5 16 Z M 139 27 L 138 31 L 139 31 L 139 27 Z " /><path fill="rgb(1,51,110)" stroke="rgb(1,51,110)" stroke-width="1" opacity="0.996078431372549" d="M 103.5 17 L 106 20.5 L 104.5 20 L 101 19.5 L 103.5 17 Z " /><path fill="rgb(1,51,110)" stroke="rgb(1,51,110)" stroke-width="1" opacity="0.996078431372549" d="M 113.5 17 L 112.5 19 L 113.5 17 Z " /><path fill="rgb(1,51,110)" stroke="rgb(1,51,110)" stroke-width="1" opacity="0.996078431372549" d="M 112.5 21 L 117 24 Q 118.5 27.7 115.5 27 L 112.5 21 Z " /><path fill="rgb(1,51,110)" stroke="rgb(1,51,110)" stroke-width="1" opacity="0.996078431372549" d="M 101.5 22 L 105 22.5 L 103 24.5 Q 104.1 30.6 101.5 33 L 101 24 L 103 23.5 L 101.5 22 Z " /><path fill="rgb(1,51,110)" stroke="rgb(1,51,110)" stroke-width="1" opacity="0.996078431372549" d="M 32.5 24 L 34.5 24 L 37.5 25 L 40 24 L 41 26.5 L 38 25.5 L 35.5 30 L 33.5 27 L 32 27.5 L 32.5 24 Z " /><path fill="rgb(1,51,110)" stroke="rgb(1,51,110)" stroke-width="1" opacity="0.996078431372549" d="M 123.5 24 L 121.5 27 L 120 26.5 L 123.5 24 Z " /><path fill="rgb(1,51,110)" stroke="rgb(1,51,110)" stroke-width="1" opacity="0.996078431372549" d="M 111 28 L 117 30.5 L 115 34 L 120.5 33 L 127 34 L 127.5 32 L 128 36 L 124.5 37 L 118.5 35 L 116.5 36 Q 113 34.7 114 30 Q 111.3 28.9 112 31.5 L 112.5 33 Q 110 31.8 111 28 Z " /><path fill="rgb(1,51,110)" stroke="rgb(1,51,110)" stroke-width="1" opacity="0.996078431372549" d="M 36.5 31 L 40.5 34 L 47.5 32 L 48 34.5 Q 45.4 37.9 38.5 37 L 37 34.5 L 38 33.5 L 36.5 31 Z " /><path fill="rgb(1,51,110)" stroke="rgb(1,51,110)" stroke-width="1" opacity="0.996078431372549" d="M 73.5 34 L 78 34.5 L 73.5 35 L 73.5 34 Z " /><path fill="rgb(1,51,110)" stroke="rgb(1,51,110)" stroke-width="1" opacity="0.996078431372549" d="M 104 34 L 106 34.5 L 104 35.5 L 104 34 Z " /><path fill="rgb(1,51,116)" stroke="rgb(1,51,116)" stroke-width="1" opacity="0.996078431372549" d="M 90 9 Q 93.7 7.7 92 13.5 L 90 14.5 L 90 9 Z " /><path fill="rgb(1,51,116)" stroke="rgb(1,51,116)" stroke-width="1" opacity="0.996078431372549" d="M 73 10 L 78 10.5 Q 76.8 13 73 12 L 73 10 Z " /><path fill="rgb(1,51,116)" stroke="rgb(1,51,116)" stroke-width="1" opacity="0.996078431372549" d="M 150 10 Q 153 9 152 12 Q 149 13 150 10 Z " /><path fill="rgb(1,51,116)" stroke="rgb(1,51,116)" stroke-width="1" opacity="0.996078431372549" d="M 86 14 Q 90.1 12.7 89 16 Q 84.9 17.3 86 14 Z " /><path fill="rgb(1,51,116)" stroke="rgb(1,51,116)" stroke-width="1" opacity="0.996078431372549" d="M 38 15 L 40 15.5 L 38 16.5 L 38 15 Z " /><path fill="rgb(1,51,116)" stroke="rgb(1,51,116)" stroke-width="1" opacity="0.996078431372549" d="M 140 15 Q 143.3 13.7 142 18.5 L 140 19.5 L 140 15 Z " /><path fill="rgb(1,51,116)" stroke="rgb(1,51,116)" stroke-width="1" opacity="0.996078431372549" d="M 101 16 L 104 16.5 L 101 18.5 L 101 16 Z " /><path fill="rgb(1,51,116)" stroke="rgb(1,51,116)" stroke-width="1" opacity="0.996078431372549" d="M 115.5 16 Q 118.1 15.2 117 18.5 L 115.5 24 Q 113.3 19.8 111 21.5 L 115.5 16 Z " /><path fill="rgb(1,51,116)" stroke="rgb(1,51,116)" stroke-width="1" opacity="0.996078431372549" d="M 120 16 L 123.5 17 L 125 16.5 L 123.5 19 L 120 18 L 120 16 Z " /><path fill="rgb(1,51,116)" stroke="rgb(1,51,116)" stroke-width="1" opacity="0.996078431372549" d="M 35.5 17 L 37 20 Q 33.5 21.1 35.5 17 Z " /><path fill="rgb(1,51,116)" stroke="rgb(1,51,116)" stroke-width="1" opacity="0.996078431372549" d="M 61 18 Q 65.1 16.7 64 20 Q 59.9 21.3 61 18 Z " /><path fill="rgb(1,51,116)" stroke="rgb(1,51,116)" stroke-width="1" opacity="0.996078431372549" d="M 127 18 Q 131.1 16.7 130 20 L 127.5 21 L 127 18 Z " /><path fill="rgb(1,51,116)" stroke="rgb(1,51,116)" stroke-width="1" opacity="0.996078431372549" d="M 47.5 19 L 48 22 Q 50.7 20.9 50 23.5 L 46 20.5 L 47.5 19 Z " /><path fill="rgb(1,51,116)" stroke="rgb(1,51,116)" stroke-width="1" opacity="0.996078431372549" d="M 87.5 19 L 88 31 L 86 30.5 L 86 20.5 L 87.5 19 Z " /><path fill="rgb(1,51,116)" stroke="rgb(1,51,116)" stroke-width="1" opacity="0.996078431372549" d="M 101 20 Q 106.2 18.3 105 22 Q 99.8 23.7 101 20 Z " /><path fill="rgb(1,51,116)" stroke="rgb(1,51,116)" stroke-width="1" opacity="0.996078431372549" d="M 58 21 Q 61.3 19.9 60 24 Q 56.7 25.1 58 21 Z " /><path fill="rgb(1,51,116)" stroke="rgb(1,51,116)" stroke-width="1" opacity="0.996078431372549" d="M 33 22 Q 35.7 20.9 35 23.5 L 33 24.5 L 33 22 Z " /><path fill="rgb(1,51,116)" stroke="rgb(1,51,116)" stroke-width="1" opacity="0.996078431372549" d="M 45.5 23 L 47 26.5 L 41.5 27 L 43.5 24 L 45.5 23 Z " /><path fill="rgb(1,51,116)" stroke="rgb(1,51,116)" stroke-width="1" opacity="0.996078431372549" d="M 124.5 24 L 126 27 L 122 26.5 L 124.5 24 Z " /><path fill="rgb(1,51,116)" stroke="rgb(1,51,116)" stroke-width="1" opacity="0.996078431372549" d="M 112.5 26 L 116 27.5 Q 117.1 30.8 114.5 30 L 111 27.5 L 112.5 26 Z " /><path fill="rgb(1,51,116)" stroke="rgb(1,51,116)" stroke-width="1" opacity="0.996078431372549" d="M 135.5 28 L 136 30.5 L 135 30.5 L 135.5 28 Z " /><path fill="rgb(1,51,116)" stroke="rgb(1,51,116)" stroke-width="1" opacity="0.996078431372549" d="M 34.5 29 L 38 33.5 L 35.5 34 Q 32.8 32.8 34.5 29 Z " /><path fill="rgb(1,51,116)" stroke="rgb(1,51,116)" stroke-width="1" opacity="0.996078431372549" d="M 116.5 31 L 119 32 Q 120.2 35.7 115 34 L 116.5 31 Z " /><path fill="rgb(1,51,116)" stroke="rgb(1,51,116)" stroke-width="1" opacity="0.996078431372549" d="M 88.5 32 Q 92.3 31 91 34 L 88.5 32 Z " /><path fill="rgb(1,51,116)" stroke="rgb(1,51,116)" stroke-width="1" opacity="0.996078431372549" d="M 128.5 32 L 129 35.5 L 128 35.5 L 128.5 32 Z " /><path fill="rgb(1,51,116)" stroke="rgb(1,51,116)" stroke-width="1" opacity="0.996078431372549" d="M 139 32 L 144 35.5 L 140.5 37 L 141 35.5 Q 141.7 32.9 139 34 L 139 32 Z " /><path fill="rgb(1,51,116)" stroke="rgb(1,51,116)" stroke-width="1" opacity="0.996078431372549" d="M 146 33 Q 148.7 31.9 148 34.5 L 146 35.5 L 146 33 Z " /><path fill="rgb(1,51,116)" stroke="rgb(1,51,116)" stroke-width="1" opacity="0.996078431372549" d="M 58 34 Q 61 33 60 36 Q 57 37 58 34 Z " /><path fill="rgb(1,51,116)" stroke="rgb(1,51,116)" stroke-width="1" opacity="0.996078431372549" d="M 73.5 35 L 78 35.5 L 73.5 36 L 73.5 35 Z " /><path fill="rgb(0,52,108)" stroke="rgb(0,52,108)" stroke-width="1" opacity="0.5254901960784314" d="M 155.5 7 L 156 37 L 151 36.5 L 155 36 L 155.5 7 Z " /><path fill="rgb(0,52,108)" stroke="rgb(0,52,108)" stroke-width="1" opacity="0.5254901960784314" d="M 73.5 12 L 77 12.5 L 73.5 13 L 73.5 12 Z " /><path fill="rgb(0,52,108)" stroke="rgb(0,52,108)" stroke-width="1" opacity="0.5254901960784314" d="M 101.5 12 L 105 12.5 L 101.5 13 L 101.5 12 Z " /><path fill="rgb(0,52,108)" stroke="rgb(0,52,108)" stroke-width="1" opacity="0.5254901960784314" d="M 56.5 15 Q 60.8 14.3 61.5 17 L 63 16.5 L 60 18.5 Q 61.3 14.3 56.5 16 L 56.5 15 Z " /><path fill="rgb(0,52,108)" stroke="rgb(0,52,108)" stroke-width="1" opacity="0.5254901960784314" d="M 75.5 15 L 78 15.5 L 75.5 16 L 75.5 15 Z " /><path fill="rgb(0,52,108)" stroke="rgb(0,52,108)" stroke-width="1" opacity="0.5254901960784314" d="M 83.5 15 L 86 15.5 L 83.5 16 L 83.5 15 Z " /><path fill="rgb(0,52,108)" stroke="rgb(0,52,108)" stroke-width="1" opacity="0.5254901960784314" d="M 92.5 15 Q 96.3 14.3 97 16.5 L 96.5 19 L 96 16 Q 91.6 17 92.5 15 Z " /><path fill="rgb(0,52,108)" stroke="rgb(0,52,108)" stroke-width="1" opacity="0.5254901960784314" d="M 102.5 15 Q 106.3 14.3 107 16.5 L 107 35.5 L 105.5 37 L 103 36.5 L 106 36 L 106 16.5 L 102.5 16 L 102.5 15 Z " /><path fill="rgb(0,52,108)" stroke="rgb(0,52,108)" stroke-width="1" opacity="0.5254901960784314" d="M 47.5 16 L 48.5 18 L 47.5 16 Z " /><path fill="rgb(0,52,108)" stroke="rgb(0,52,108)" stroke-width="1" opacity="0.5254901960784314" d="M 148.5 16 L 149.5 18 L 148.5 16 Z " /><path fill="rgb(0,52,108)" stroke="rgb(0,52,108)" stroke-width="1" opacity="0.5254901960784314" d="M 50.5 21 L 51 26.5 L 50 26.5 L 50.5 21 Z " /><path fill="rgb(0,52,108)" stroke="rgb(0,52,108)" stroke-width="1" opacity="0.5254901960784314" d="M 125.5 22 L 124.5 24 L 123 23.5 L 125.5 22 Z " /><path fill="rgb(0,52,108)" stroke="rgb(0,52,108)" stroke-width="1" opacity="0.5254901960784314" d="M 42.5 23 L 45 23.5 L 42.5 24 L 42.5 23 Z " /><path fill="rgb(0,52,108)" stroke="rgb(0,52,108)" stroke-width="1" opacity="0.5254901960784314" d="M 60.5 24 L 61 35.5 Q 60 38 55.5 37 L 55.5 36 L 60 36 L 60.5 24 Z " /><path fill="rgb(0,52,108)" stroke="rgb(0,52,108)" stroke-width="1" opacity="0.5254901960784314" d="M 140.5 27 L 141 29.5 L 140 29.5 L 140.5 27 Z " /><path fill="rgb(0,52,108)" stroke="rgb(0,52,108)" stroke-width="1" opacity="0.5254901960784314" d="M 73.5 36 L 78 36.5 L 73.5 37 L 73.5 36 Z " /><path fill="rgb(0,52,108)" stroke="rgb(0,52,108)" stroke-width="1" opacity="0.5254901960784314" d="M 86.5 36 L 90 36.5 L 86.5 37 L 86.5 36 Z " /><path fill="rgb(0,52,108)" stroke="rgb(0,52,108)" stroke-width="1" opacity="0.5254901960784314" d="M 125.5 36 L 128 36.5 L 125.5 37 L 125.5 36 Z " /></svg>